<svg width="17" height="16" viewBox="0 0 17 16" fill="none" xmlns="http://www.w3.org/2000/svg">
<g clip-path="url(#clip0_206_247)">
<path d="M14.0716 14.0002L11.0809 11.0042L14.0716 14.0002ZM12.7382 7.00016C12.7382 8.50306 12.1412 9.9444 11.0785 11.0071C10.0158 12.0698 8.57447 12.6668 7.07157 12.6668C5.56868 12.6668 4.12734 12.0698 3.06464 11.0071C2.00193 9.9444 1.40491 8.50306 1.40491 7.00016C1.40491 5.49727 2.00193 4.05593 3.06464 2.99322C4.12734 1.93052 5.56868 1.3335 7.07157 1.3335C8.57447 1.3335 10.0158 1.93052 11.0785 2.99322C12.1412 4.05593 12.7382 5.49727 12.7382 7.00016V7.00016Z" stroke="#E52E2E" stroke-width="2" stroke-linecap="round"/>
</g>
<defs>
<clipPath id="clip0_206_247">
<rect width="16" height="16" fill="white" transform="translate(0.0715332)"/>
</clipPath>
</defs>
</svg>
