<svg width="108" height="119" viewBox="0 0 108 119" fill="none" xmlns="http://www.w3.org/2000/svg">
<path d="M95.4167 12.2916H89.5V0.458252H77.6667V12.2916H30.3333V0.458252H18.5V12.2916H12.5833C6.075 12.2916 0.75 17.6166 0.75 24.1249V106.958C0.75 113.467 6.075 118.792 12.5833 118.792H95.4167C101.925 118.792 107.25 113.467 107.25 106.958V24.1249C107.25 17.6166 101.925 12.2916 95.4167 12.2916ZM95.4167 106.958H12.5833V47.7916H95.4167V106.958ZM12.5833 35.9583V24.1249H95.4167V35.9583H12.5833ZM24.4167 59.6249H83.5833V71.4583H24.4167V59.6249ZM24.4167 83.2916H65.8333V95.1249H24.4167V83.2916Z" fill="#C7C7C7"/>
</svg>
