<svg width="17" height="16" viewBox="0 0 17 16" fill="none" xmlns="http://www.w3.org/2000/svg">
<mask id="mask0_206_415" style="mask-type:alpha" maskUnits="userSpaceOnUse" x="1" y="0" width="16" height="16">
<path fill-rule="evenodd" clip-rule="evenodd" d="M7.28419 0.333496C3.92135 0.333496 1.19052 3.03789 1.19052 6.37972C1.19052 9.72155 3.92135 12.4259 7.28419 12.4259C8.53794 12.4259 9.70418 12.0499 10.6735 11.4052L14.6489 15.3478C15.0778 15.7732 15.7721 15.7732 16.201 15.3478C16.6315 14.9209 16.6315 14.2276 16.201 13.8007L12.2511 9.88328C12.9604 8.89503 13.3779 7.68547 13.3779 6.37972C13.3779 3.03789 10.647 0.333496 7.28419 0.333496ZM3.38835 6.37972C3.38835 4.24994 5.12997 2.51872 7.28419 2.51872C9.43841 2.51872 11.18 4.24994 11.18 6.37972C11.18 8.5095 9.43841 10.2407 7.28419 10.2407C5.12997 10.2407 3.38835 8.5095 3.38835 6.37972Z" fill="#006FFD"/>
</mask>
<g mask="url(#mask0_206_415)">
<rect x="0.857178" width="16" height="16" fill="#2F3036"/>
</g>
</svg>
