<svg width="28" height="28" viewBox="0 0 28 28" fill="none" xmlns="http://www.w3.org/2000/svg">
<path d="M15.7049 26.9102C13.0348 26.9102 10.6918 26.0909 8.676 24.4523C6.66019 22.8137 5.38768 20.7135 4.85847 18.1518C4.80101 17.947 4.8214 17.7575 4.91964 17.5832C5.01788 17.409 5.1722 17.308 5.38258 17.2802C5.57999 17.2524 5.75377 17.2955 5.90391 17.4095C6.05313 17.5235 6.15925 17.6857 6.22227 17.896C6.7246 20.1056 7.85809 21.9286 9.62274 23.3651C11.3874 24.8017 13.4148 25.52 15.7049 25.52C18.4159 25.52 20.7153 24.576 22.6032 22.6881C24.4911 20.8002 25.4355 18.5003 25.4364 15.7885C25.4374 13.0766 24.4929 10.7767 22.6032 8.88883C20.7134 7.00092 18.414 6.05696 15.7049 6.05696C14.2656 6.05696 12.9134 6.36096 11.6483 6.96895C10.3832 7.57601 9.26638 8.41245 8.29786 9.47828H11.0519C11.2493 9.47828 11.4147 9.54501 11.5482 9.67848C11.6816 9.81194 11.7479 9.97737 11.747 10.1748C11.7461 10.3722 11.6798 10.5372 11.5482 10.6697C11.4166 10.8022 11.2511 10.8685 11.0519 10.8685H7.09672C6.77882 10.8685 6.51236 10.761 6.29734 10.546C6.08232 10.331 5.97481 10.0645 5.97481 9.7466V5.79004C5.97481 5.59263 6.04154 5.42766 6.175 5.29513C6.30846 5.16259 6.47344 5.09586 6.66992 5.09493C6.8664 5.09401 7.03138 5.16074 7.16484 5.29513C7.2983 5.42951 7.36503 5.59449 7.36503 5.79004V8.41477C8.44013 7.23494 9.69966 6.31554 11.1436 5.65658C12.5876 4.99762 14.108 4.66767 15.7049 4.66675C17.2481 4.66675 18.6934 4.95684 20.041 5.53702C21.3886 6.11721 22.5661 6.91148 23.5736 7.91985C24.581 8.92822 25.3753 10.1053 25.9564 11.451C26.5375 12.7967 26.8276 14.2421 26.8267 15.7871C26.8257 17.3321 26.5356 18.7779 25.9564 20.1246C25.3771 21.4712 24.5828 22.6492 23.5736 23.6585C22.5643 24.6678 21.3867 25.4616 20.041 26.0399C18.6953 26.6183 17.2509 26.9083 15.7049 26.9102ZM16.4793 15.4993L20.6499 19.67C20.7797 19.7997 20.8492 19.9591 20.8585 20.1482C20.8677 20.3382 20.7982 20.5069 20.6499 20.6542C20.5016 20.8025 20.3381 20.8767 20.1592 20.8767C19.9785 20.8767 19.8144 20.8025 19.667 20.6542L15.4269 16.4141C15.3055 16.2936 15.2188 16.1666 15.1669 16.0332C15.115 15.8997 15.0891 15.7621 15.0891 15.6203V9.5325C15.0891 9.33509 15.1558 9.17012 15.2893 9.03759C15.4227 8.90413 15.5882 8.83739 15.7856 8.83739C15.983 8.83739 16.1479 8.90413 16.2805 9.03759C16.413 9.17105 16.4793 9.33602 16.4793 9.5325V15.4993Z" fill="#E62E2E"/>
</svg>
