<svg width="28" height="30" viewBox="0 0 28 30" fill="none" xmlns="http://www.w3.org/2000/svg">
<path d="M27.3541 11.98L14.9424 0.561161C14.5389 0.189944 14.0075 -0.0109535 13.4594 0.000461084C12.9112 0.0118757 12.3887 0.234719 12.001 0.622411L0.585813 12.0377L0 12.6234V29.4518H11V18.9518H17V29.4518H28V12.5742L27.3541 11.98ZM13.5024 2.00004C13.52 2.00004 13.5091 2.00385 13.5016 2.01129C13.4937 2.00385 13.4847 2.00004 13.5024 2.00004ZM26 27.4518H19V18.9518C19 18.4214 18.7893 17.9127 18.4142 17.5376C18.0391 17.1626 17.5304 16.9518 17 16.9518H11C10.4696 16.9518 9.96086 17.1626 9.58579 17.5376C9.21071 17.9127 9 18.4214 9 18.9518V27.4518H2V13.4518L13.5024 2.0366C13.5032 2.03585 13.5033 2.03516 13.5039 2.03441L26 13.4518V27.4518Z" fill="#E62E2E"/>
</svg>
