<svg width="28" height="27" viewBox="0 0 28 27" fill="none" xmlns="http://www.w3.org/2000/svg">
<path d="M9.44824 26.1548C10.5528 26.1548 11.4482 25.2594 11.4482 24.1548C11.4482 23.0502 10.5528 22.1548 9.44824 22.1548C8.34367 22.1548 7.44824 23.0502 7.44824 24.1548C7.44824 25.2594 8.34367 26.1548 9.44824 26.1548Z" fill="#292929"/>
<path d="M21.5994 26.1548C22.7039 26.1548 23.5994 25.2594 23.5994 24.1548C23.5994 23.0502 22.7039 22.1548 21.5994 22.1548C20.4948 22.1548 19.5994 23.0502 19.5994 24.1548C19.5994 25.2594 20.4948 26.1548 21.5994 26.1548Z" fill="#292929"/>
<path d="M27.0038 2.48382C26.9211 2.38186 26.8168 2.29948 26.6985 2.24261C26.5802 2.18575 26.4507 2.1558 26.3194 2.15494H7.81272L8.39049 3.93271H25.1549L22.7816 14.5994H9.44827L5.38605 1.73716C5.34211 1.60068 5.26581 1.47685 5.16365 1.37624C5.0615 1.27563 4.93652 1.20123 4.79938 1.15938L1.15494 0.0393807C1.04288 0.00494516 0.92513 -0.00708099 0.808421 0.00398876C0.691712 0.0150585 0.578326 0.0490074 0.474737 0.103897C0.265529 0.214752 0.108928 0.404174 0.039382 0.630492C-0.0301637 0.85681 -0.00695637 1.10149 0.103898 1.31069C0.214753 1.5199 0.404175 1.6765 0.630493 1.74605L3.8216 2.72382L7.90161 15.6127L6.44383 16.8038L6.32827 16.9194C5.96768 17.3349 5.76329 17.8632 5.75031 18.4132C5.73733 18.9633 5.91657 19.5006 6.25716 19.9327C6.49944 20.2273 6.8073 20.4612 7.15613 20.6155C7.50496 20.7699 7.88507 20.8405 8.26605 20.8216H23.1016C23.3374 20.8216 23.5634 20.728 23.7301 20.5613C23.8968 20.3946 23.9905 20.1685 23.9905 19.9327C23.9905 19.697 23.8968 19.4709 23.7301 19.3042C23.5634 19.1375 23.3374 19.0438 23.1016 19.0438H8.12383C8.02147 19.0403 7.92174 19.0105 7.83428 18.9572C7.74682 18.9039 7.67458 18.829 7.62453 18.7396C7.57449 18.6502 7.54834 18.5495 7.54861 18.4471C7.54887 18.3447 7.57554 18.244 7.62605 18.1549L9.76827 16.3772H23.4927C23.6982 16.3822 23.8991 16.3158 24.0611 16.1894C24.2232 16.063 24.3364 15.8843 24.3816 15.6838L27.1994 3.23938C27.2264 3.10686 27.2229 2.96992 27.189 2.83899C27.1551 2.70806 27.0918 2.58659 27.0038 2.48382Z" fill="#292929"/>
</svg>
