<svg width="28" height="28" viewBox="0 0 28 28" fill="none" xmlns="http://www.w3.org/2000/svg">
<path fill-rule="evenodd" clip-rule="evenodd" d="M14 1.45825C12.5303 1.45825 11.1207 2.0421 10.0815 3.08137C9.04221 4.12063 8.45836 5.53018 8.45836 6.99992C8.45836 8.46966 9.04221 9.8792 10.0815 10.9185C11.1207 11.9577 12.5303 12.5416 14 12.5416C15.4698 12.5416 16.8793 11.9577 17.9186 10.9185C18.9578 9.8792 19.5417 8.46966 19.5417 6.99992C19.5417 5.53018 18.9578 4.12063 17.9186 3.08137C16.8793 2.0421 15.4698 1.45825 14 1.45825ZM10.2084 6.99992C10.2084 5.99431 10.6078 5.02988 11.3189 4.31881C12.03 3.60773 12.9944 3.20825 14 3.20825C15.0056 3.20825 15.9701 3.60773 16.6811 4.31881C17.3922 5.02988 17.7917 5.99431 17.7917 6.99992C17.7917 8.00553 17.3922 8.96996 16.6811 9.68103C15.9701 10.3921 15.0056 10.7916 14 10.7916C12.9944 10.7916 12.03 10.3921 11.3189 9.68103C10.6078 8.96996 10.2084 8.00553 10.2084 6.99992ZM14 14.2916C11.3015 14.2916 8.81419 14.9053 6.97202 15.9413C5.15669 16.9633 3.79169 18.5103 3.79169 20.4166V20.5356C3.79052 21.8913 3.78936 23.5923 5.28152 24.8079C6.01536 25.4053 7.04319 25.8311 8.43152 26.1111C9.82219 26.3934 11.6364 26.5416 14 26.5416C16.3637 26.5416 18.1767 26.3934 19.5697 26.1111C20.958 25.8311 21.9847 25.4053 22.7197 24.8079C24.2119 23.5923 24.2095 21.8913 24.2084 20.5356V20.4166C24.2084 18.5103 22.8434 16.9633 21.0292 15.9413C19.1859 14.9053 16.6997 14.2916 14 14.2916ZM5.54169 20.4166C5.54169 19.4238 6.26736 18.3458 7.82952 17.4673C9.36486 16.6039 11.5442 16.0416 14.0012 16.0416C16.4559 16.0416 18.6352 16.6039 20.1705 17.4673C21.7339 18.3458 22.4584 19.4238 22.4584 20.4166C22.4584 21.9426 22.4117 22.8013 21.6137 23.4499C21.182 23.8023 20.4587 24.1464 19.222 24.3961C17.9889 24.6458 16.303 24.7916 14 24.7916C11.697 24.7916 10.01 24.6458 8.77802 24.3961C7.54136 24.1464 6.81802 23.8023 6.38636 23.4511C5.58836 22.8013 5.54169 21.9426 5.54169 20.4166Z" fill="black"/>
</svg>
